<svg width="18" height="18" viewBox="0 0 18 18" fill="none"
    xmlns="http://www.w3.org/2000/svg">
    <path d="M0 0H18V18H0L0 0Z" fill="#FE723F"/>
    <path d="M9.11766 16.5625C7.99608 16.5625 7.01128 16.2661 6.16326 15.6733C5.32891 15.0804 4.67922 14.2249 4.21417 13.1066C3.74912 11.9883 3.5166 10.6477 3.5166 9.08479C3.5166 7.53535 3.73545 6.20149 4.17314 5.0832C4.6245 3.95143 5.26736 3.0824 6.10171 2.4761C6.94973 1.8698 7.96189 1.56665 9.13818 1.56665C10.123 1.56665 10.9778 1.76201 11.7028 2.15274C12.4277 2.54347 13.0227 3.12282 13.4877 3.89081C13.9664 4.65879 14.3084 5.6154 14.5136 6.76063L11.1488 6.94252C11.0257 6.08023 10.7932 5.44698 10.4513 5.04278C10.1093 4.63858 9.67845 4.43648 9.1587 4.43648C8.67997 4.43648 8.26964 4.61837 7.92769 4.98215C7.59943 5.33245 7.34639 5.85792 7.16858 6.55853C6.99076 7.24567 6.90186 8.08776 6.90186 9.08479C6.90186 10.0683 6.9976 10.9037 7.18909 11.5908C7.39426 12.278 7.67465 12.8034 8.03028 13.1672C8.39958 13.5175 8.85095 13.6927 9.38438 13.6927C9.79472 13.6927 10.1435 13.5984 10.4307 13.4097C10.718 13.2076 10.9437 12.918 11.1078 12.5407C11.2719 12.1634 11.3608 11.6986 11.3745 11.1462H9.07663V8.7008H14.4315V16.2391H12.3798L12.2362 13.2278L12.9338 12.7226C12.8927 13.3963 12.7149 14.0295 12.4003 14.6223C12.0994 15.2017 11.6686 15.6733 11.1078 16.037C10.5607 16.3873 9.8973 16.5625 9.11766 16.5625Z" fill="white"/>
    <path d="M8.85106 16.4959C7.72948 16.4959 6.74468 16.1994 5.89666 15.6066C5.06231 15.0138 4.41261 14.1582 3.94757 13.0399C3.48252 11.9216 3.25 10.581 3.25 9.01814C3.25 7.4687 3.46884 6.13484 3.90653 5.01655C4.3579 3.88478 5.00076 3.01575 5.83511 2.40945C6.68313 1.80315 7.69529 1.5 8.87158 1.5C9.85638 1.5 10.7112 1.69536 11.4362 2.08609C12.1611 2.47682 12.7561 3.05617 13.2211 3.82416C13.6998 4.59214 14.0418 5.54874 14.247 6.69398L10.8822 6.87587C10.7591 6.01358 10.5266 5.38033 10.1846 4.97613C9.8427 4.57193 9.41185 4.36983 8.8921 4.36983C8.41337 4.36983 8.00304 4.55172 7.66109 4.9155C7.33283 5.2658 7.07979 5.79127 6.90197 6.49188C6.72416 7.17902 6.63526 8.02111 6.63526 9.01814C6.63526 10.0017 6.731 10.837 6.92249 11.5242C7.12766 12.2113 7.40805 12.7368 7.76368 13.1006C8.13298 13.4509 8.58434 13.626 9.11778 13.626C9.52811 13.626 9.8769 13.5317 10.1641 13.3431C10.4514 13.141 10.677 12.8513 10.8412 12.4741C11.0053 12.0968 11.0942 11.632 11.1079 11.0796H8.81003V8.63414H14.1649V16.1725H12.1132L11.9696 13.1612L12.6672 12.6559C12.6261 13.3296 12.4483 13.9629 12.1337 14.5557C11.8328 15.135 11.402 15.6066 10.8412 15.9704C10.2941 16.3207 9.6307 16.4959 8.85106 16.4959Z" fill="black"/>
</svg>
